<svg id="visual" viewBox="0 0 900 600" width="900" height="600" xmlns="http://www.w3.org/2000/svg" xmlns:xlink="http://www.w3.org/1999/xlink" version="1.1"><rect x="0" y="0" width="900" height="600" fill="#ffffff"></rect><g fill="#B3E9F6"><circle r="18" cx="167" cy="93"></circle><circle r="2" cx="538" cy="19"></circle><circle r="12" cx="762" cy="434"></circle><circle r="6" cx="43" cy="587"></circle><circle r="13" cx="317" cy="229"></circle><circle r="7" cx="166" cy="528"></circle><circle r="10" cx="33" cy="379"></circle><circle r="9" cx="266" cy="89"></circle><circle r="11" cx="748" cy="527"></circle><circle r="8" cx="403" cy="146"></circle><circle r="16" cx="473" cy="530"></circle><circle r="12" cx="377" cy="573"></circle><circle r="5" cx="670" cy="273"></circle><circle r="4" cx="703" cy="454"></circle><circle r="4" cx="568" cy="353"></circle><circle r="2" cx="329" cy="111"></circle><circle r="6" cx="265" cy="194"></circle><circle r="13" cx="453" cy="595"></circle><circle r="6" cx="52" cy="290"></circle><circle r="5" cx="716" cy="567"></circle><circle r="7" cx="351" cy="336"></circle><circle r="15" cx="664" cy="140"></circle><circle r="3" cx="192" cy="45"></circle><circle r="5" cx="344" cy="546"></circle><circle r="5" cx="453" cy="128"></circle><circle r="6" cx="595" cy="97"></circle><circle r="9" cx="849" cy="170"></circle><circle r="11" cx="169" cy="231"></circle><circle r="3" cx="423" cy="510"></circle><circle r="14" cx="50" cy="65"></circle><circle r="13" cx="216" cy="473"></circle><circle r="1" cx="815" cy="446"></circle><circle r="5" cx="128" cy="447"></circle><circle r="9" cx="526" cy="128"></circle><circle r="5" cx="889" cy="479"></circle><circle r="16" cx="148" cy="40"></circle><circle r="14" cx="426" cy="271"></circle><circle r="7" cx="382" cy="216"></circle><circle r="16" cx="504" cy="383"></circle><circle r="8" cx="860" cy="403"></circle><circle r="10" cx="646" cy="456"></circle><circle r="1" cx="525" cy="59"></circle><circle r="7" cx="180" cy="161"></circle><circle r="9" cx="184" cy="354"></circle><circle r="4" cx="562" cy="572"></circle><circle r="16" cx="246" cy="134"></circle><circle r="14" cx="743" cy="359"></circle><circle r="12" cx="407" cy="456"></circle><circle r="13" cx="93" cy="33"></circle><circle r="4" cx="246" cy="583"></circle><circle r="3" cx="563" cy="202"></circle><circle r="12" cx="527" cy="474"></circle><circle r="3" cx="560" cy="246"></circle><circle r="7" cx="368" cy="370"></circle><circle r="7" cx="316" cy="3"></circle><circle r="15" cx="462" cy="345"></circle><circle r="4" cx="508" cy="566"></circle><circle r="8" cx="770" cy="310"></circle><circle r="16" cx="437" cy="78"></circle><circle r="12" cx="884" cy="297"></circle><circle r="15" cx="435" cy="230"></circle><circle r="9" cx="767" cy="255"></circle><circle r="10" cx="7" cy="468"></circle><circle r="16" cx="634" cy="340"></circle><circle r="9" cx="657" cy="57"></circle><circle r="15" cx="648" cy="390"></circle><circle r="5" cx="339" cy="507"></circle><circle r="10" cx="274" cy="379"></circle><circle r="16" cx="102" cy="367"></circle><circle r="15" cx="334" cy="37"></circle><circle r="13" cx="854" cy="128"></circle><circle r="10" cx="69" cy="215"></circle><circle r="16" cx="827" cy="20"></circle><circle r="1" cx="123" cy="506"></circle><circle r="1" cx="837" cy="585"></circle><circle r="8" cx="814" cy="403"></circle><circle r="9" cx="505" cy="195"></circle><circle r="12" cx="52" cy="518"></circle><circle r="3" cx="522" cy="255"></circle><circle r="6" cx="714" cy="310"></circle><circle r="3" cx="291" cy="160"></circle><circle r="6" cx="336" cy="289"></circle><circle r="4" cx="701" cy="519"></circle><circle r="15" cx="68" cy="460"></circle><circle r="4" cx="179" cy="580"></circle><circle r="2" cx="293" cy="580"></circle><circle r="4" cx="224" cy="175"></circle><circle r="8" cx="116" cy="129"></circle><circle r="9" cx="96" cy="428"></circle><circle r="8" cx="27" cy="260"></circle><circle r="6" cx="235" cy="349"></circle><circle r="4" cx="890" cy="40"></circle><circle r="12" cx="75" cy="108"></circle><circle r="6" cx="382" cy="501"></circle><circle r="4" cx="121" cy="169"></circle><circle r="10" cx="234" cy="40"></circle><circle r="3" cx="368" cy="76"></circle><circle r="12" cx="418" cy="339"></circle><circle r="7" cx="12" cy="298"></circle><circle r="11" cx="274" cy="238"></circle><circle r="10" cx="183" cy="318"></circle><circle r="15" cx="503" cy="332"></circle><circle r="10" cx="141" cy="346"></circle><circle r="1" cx="733" cy="95"></circle><circle r="8" cx="321" cy="411"></circle><circle r="16" cx="670" cy="556"></circle><circle r="1" cx="353" cy="173"></circle><circle r="1" cx="821" cy="257"></circle><circle r="9" cx="629" cy="270"></circle><circle r="15" cx="495" cy="106"></circle><circle r="13" cx="232" cy="549"></circle><circle r="3" cx="174" cy="445"></circle><circle r="3" cx="476" cy="470"></circle><circle r="3" cx="179" cy="405"></circle><circle r="8" cx="87" cy="304"></circle><circle r="15" cx="23" cy="203"></circle><circle r="9" cx="589" cy="409"></circle><circle r="1" cx="743" cy="481"></circle><circle r="16" cx="468" cy="9"></circle><circle r="9" cx="585" cy="42"></circle><circle r="5" cx="899" cy="546"></circle><circle r="1" cx="282" cy="474"></circle><circle r="9" cx="324" cy="73"></circle><circle r="3" cx="138" cy="308"></circle><circle r="1" cx="308" cy="365"></circle><circle r="5" cx="103" cy="258"></circle><circle r="7" cx="898" cy="156"></circle><circle r="4" cx="326" cy="461"></circle><circle r="16" cx="834" cy="372"></circle><circle r="1" cx="669" cy="198"></circle><circle r="14" cx="745" cy="216"></circle><circle r="5" cx="390" cy="415"></circle><circle r="8" cx="164" cy="279"></circle><circle r="12" cx="296" cy="325"></circle><circle r="1" cx="467" cy="310"></circle><circle r="6" cx="144" cy="571"></circle><circle r="12" cx="741" cy="143"></circle><circle r="14" cx="159" cy="190"></circle><circle r="13" cx="797" cy="536"></circle><circle r="12" cx="247" cy="271"></circle><circle r="13" cx="366" cy="256"></circle><circle r="1" cx="839" cy="507"></circle><circle r="6" cx="597" cy="456"></circle><circle r="15" cx="96" cy="565"></circle><circle r="5" cx="715" cy="410"></circle><circle r="12" cx="125" cy="405"></circle><circle r="15" cx="637" cy="179"></circle><circle r="14" cx="8" cy="524"></circle><circle r="3" cx="704" cy="64"></circle><circle r="16" cx="414" cy="14"></circle><circle r="12" cx="662" cy="590"></circle><circle r="9" cx="582" cy="516"></circle><circle r="2" cx="24" cy="128"></circle><circle r="4" cx="370" cy="13"></circle><circle r="2" cx="812" cy="154"></circle><circle r="11" cx="285" cy="44"></circle><circle r="10" cx="779" cy="481"></circle><circle r="10" cx="835" cy="94"></circle><circle r="7" cx="426" cy="548"></circle><circle r="12" cx="220" cy="104"></circle><circle r="2" cx="866" cy="236"></circle><circle r="11" cx="801" cy="44"></circle><circle r="1" cx="68" cy="387"></circle><circle r="3" cx="890" cy="103"></circle><circle r="1" cx="211" cy="594"></circle><circle r="3" cx="599" cy="160"></circle><circle r="8" cx="610" cy="588"></circle><circle r="13" cx="718" cy="178"></circle><circle r="8" cx="296" cy="267"></circle><circle r="15" cx="386" cy="296"></circle><circle r="7" cx="554" cy="395"></circle><circle r="14" cx="877" cy="590"></circle><circle r="14" cx="709" cy="244"></circle><circle r="4" cx="440" cy="477"></circle><circle r="16" cx="620" cy="132"></circle><circle r="3" cx="256" cy="498"></circle><circle r="12" cx="448" cy="385"></circle><circle r="8" cx="805" cy="213"></circle><circle r="8" cx="42" cy="9"></circle><circle r="9" cx="440" cy="422"></circle><circle r="8" cx="675" cy="106"></circle><circle r="10" cx="849" cy="320"></circle><circle r="3" cx="675" cy="346"></circle><circle r="16" cx="328" cy="580"></circle><circle r="3" cx="777" cy="125"></circle><circle r="1" cx="784" cy="1"></circle><circle r="4" cx="662" cy="493"></circle><circle r="2" cx="270" cy="299"></circle><circle r="1" cx="674" cy="3"></circle><circle r="5" cx="774" cy="162"></circle><circle r="2" cx="2" cy="570"></circle><circle r="15" cx="612" cy="232"></circle><circle r="11" cx="194" cy="503"></circle><circle r="11" cx="784" cy="352"></circle><circle r="2" cx="8" cy="13"></circle><circle r="15" cx="38" cy="334"></circle><circle r="10" cx="615" cy="534"></circle><circle r="13" cx="493" cy="34"></circle><circle r="14" cx="563" cy="475"></circle><circle r="10" cx="805" cy="293"></circle><circle r="5" cx="13" cy="82"></circle><circle r="7" cx="489" cy="156"></circle><circle r="2" cx="301" cy="509"></circle><circle r="16" cx="657" cy="307"></circle><circle r="11" cx="858" cy="452"></circle><circle r="9" cx="454" cy="172"></circle><circle r="13" cx="800" cy="90"></circle><circle r="4" cx="545" cy="508"></circle><circle r="15" cx="880" cy="354"></circle><circle r="8" cx="786" cy="574"></circle><circle r="12" cx="757" cy="57"></circle><circle r="9" cx="76" cy="159"></circle><circle r="8" cx="113" cy="213"></circle><circle r="12" cx="1" cy="332"></circle><circle r="13" cx="556" cy="312"></circle><circle r="3" cx="601" cy="326"></circle><circle r="4" cx="731" cy="18"></circle><circle r="10" cx="504" cy="293"></circle><circle r="6" cx="616" cy="23"></circle><circle r="3" cx="29" cy="430"></circle><circle r="16" cx="182" cy="10"></circle><circle r="13" cx="127" cy="84"></circle><circle r="16" cx="554" cy="95"></circle><circle r="16" cx="266" cy="424"></circle><circle r="13" cx="509" cy="441"></circle><circle r="1" cx="859" cy="536"></circle><circle r="3" cx="870" cy="2"></circle><circle r="1" cx="184" cy="125"></circle><circle r="9" cx="321" cy="189"></circle><circle r="12" cx="619" cy="488"></circle><circle r="12" cx="536" cy="174"></circle><circle r="15" cx="366" cy="118"></circle><circle r="12" cx="762" cy="396"></circle><circle r="8" cx="4" cy="160"></circle><circle r="8" cx="204" cy="288"></circle><circle r="3" cx="244" cy="5"></circle><circle r="3" cx="561" cy="148"></circle><circle r="9" cx="213" cy="235"></circle><circle r="2" cx="220" cy="403"></circle><circle r="1" cx="393" cy="535"></circle><circle r="6" cx="370" cy="461"></circle><circle r="4" cx="130" cy="9"></circle><circle r="4" cx="421" cy="111"></circle><circle r="13" cx="472" cy="64"></circle><circle r="11" cx="664" cy="421"></circle><circle r="13" cx="160" cy="481"></circle><circle r="16" cx="491" cy="238"></circle><circle r="7" cx="91" cy="77"></circle><circle r="9" cx="592" cy="288"></circle><circle r="10" cx="86" cy="510"></circle><circle r="7" cx="878" cy="197"></circle><circle r="4" cx="550" cy="437"></circle><circle r="6" cx="690" cy="386"></circle><circle r="7" cx="407" cy="184"></circle><circle r="5" cx="864" cy="64"></circle><circle r="12" cx="59" cy="554"></circle><circle r="3" cx="406" cy="50"></circle><circle r="16" cx="733" cy="275"></circle><circle r="8" cx="509" cy="525"></circle><circle r="5" cx="100" cy="472"></circle><circle r="3" cx="538" cy="546"></circle><circle r="2" cx="534" cy="354"></circle><circle r="3" cx="895" cy="434"></circle><circle r="3" cx="410" cy="381"></circle><circle r="16" cx="301" cy="545"></circle><circle r="1" cx="614" cy="381"></circle><circle r="2" cx="751" cy="572"></circle><circle r="5" cx="631" cy="83"></circle><circle r="16" cx="704" cy="133"></circle><circle r="1" cx="662" cy="235"></circle><circle r="11" cx="196" cy="200"></circle><circle r="10" cx="235" cy="443"></circle><circle r="13" cx="898" cy="399"></circle><circle r="12" cx="403" cy="596"></circle><circle r="4" cx="357" cy="429"></circle><circle r="12" cx="489" cy="598"></circle><circle r="4" cx="481" cy="411"></circle><circle r="6" cx="292" cy="123"></circle><circle r="11" cx="814" cy="327"></circle><circle r="12" cx="573" cy="7"></circle><circle r="4" cx="840" cy="205"></circle><circle r="4" cx="471" cy="273"></circle><circle r="7" cx="627" cy="425"></circle><circle r="11" cx="280" cy="9"></circle><circle r="13" cx="4" cy="399"></circle><circle r="10" cx="431" cy="306"></circle><circle r="11" cx="469" cy="209"></circle><circle r="3" cx="443" cy="38"></circle><circle r="13" cx="531" cy="596"></circle><circle r="5" cx="120" cy="598"></circle><circle r="8" cx="20" cy="47"></circle><circle r="1" cx="227" cy="315"></circle><circle r="6" cx="604" cy="195"></circle><circle r="8" cx="774" cy="197"></circle><circle r="16" cx="64" cy="255"></circle><circle r="3" cx="849" cy="279"></circle><circle r="16" cx="697" cy="28"></circle><circle r="11" cx="70" cy="351"></circle><circle r="10" cx="298" cy="437"></circle><circle r="14" cx="893" cy="262"></circle><circle r="1" cx="195" cy="549"></circle><circle r="13" cx="40" cy="484"></circle><circle r="14" cx="266" cy="540"></circle><circle r="16" cx="40" cy="161"></circle><circle r="15" cx="80" cy="599"></circle><circle r="8" cx="324" cy="149"></circle><circle r="9" cx="139" cy="252"></circle></g></svg>