<svg id="visual" viewBox="0 0 900 600" width="900" height="600" xmlns="http://www.w3.org/2000/svg" xmlns:xlink="http://www.w3.org/1999/xlink" version="1.1"><rect x="0" y="0" width="900" height="600" fill="#ffffff"></rect><g fill="#B3E9F6"><circle r="14" cx="637" cy="235"></circle><circle r="1" cx="267" cy="501"></circle><circle r="8" cx="893" cy="148"></circle><circle r="9" cx="876" cy="179"></circle><circle r="11" cx="53" cy="409"></circle><circle r="10" cx="609" cy="313"></circle><circle r="2" cx="474" cy="235"></circle><circle r="1" cx="573" cy="574"></circle><circle r="8" cx="474" cy="388"></circle><circle r="2" cx="434" cy="166"></circle><circle r="3" cx="824" cy="492"></circle><circle r="7" cx="677" cy="251"></circle><circle r="7" cx="194" cy="117"></circle><circle r="1" cx="315" cy="272"></circle><circle r="8" cx="91" cy="275"></circle><circle r="6" cx="27" cy="301"></circle><circle r="11" cx="362" cy="539"></circle><circle r="4" cx="737" cy="117"></circle><circle r="9" cx="799" cy="308"></circle><circle r="2" cx="371" cy="108"></circle><circle r="3" cx="261" cy="88"></circle><circle r="7" cx="637" cy="521"></circle><circle r="11" cx="102" cy="162"></circle><circle r="4" cx="868" cy="251"></circle><circle r="5" cx="791" cy="146"></circle><circle r="7" cx="174" cy="345"></circle><circle r="2" cx="272" cy="15"></circle><circle r="12" cx="234" cy="1"></circle><circle r="6" cx="270" cy="584"></circle><circle r="11" cx="643" cy="155"></circle><circle r="7" cx="891" cy="569"></circle><circle r="1" cx="414" cy="292"></circle><circle r="2" cx="347" cy="12"></circle><circle r="7" cx="791" cy="444"></circle><circle r="1" cx="556" cy="536"></circle><circle r="6" cx="876" cy="286"></circle><circle r="0" cx="408" cy="547"></circle><circle r="7" cx="351" cy="347"></circle><circle r="5" cx="665" cy="546"></circle><circle r="8" cx="867" cy="466"></circle><circle r="7" cx="509" cy="375"></circle><circle r="0" cx="560" cy="169"></circle><circle r="11" cx="352" cy="233"></circle><circle r="4" cx="824" cy="278"></circle><circle r="6" cx="578" cy="149"></circle><circle r="11" cx="467" cy="470"></circle><circle r="7" cx="836" cy="462"></circle><circle r="12" cx="597" cy="347"></circle><circle r="10" cx="574" cy="112"></circle><circle r="9" cx="856" cy="196"></circle><circle r="8" cx="260" cy="355"></circle><circle r="10" cx="635" cy="352"></circle><circle r="9" cx="599" cy="386"></circle><circle r="2" cx="484" cy="131"></circle><circle r="8" cx="206" cy="142"></circle><circle r="11" cx="569" cy="319"></circle><circle r="7" cx="147" cy="101"></circle><circle r="3" cx="88" cy="105"></circle><circle r="0" cx="784" cy="382"></circle><circle r="11" cx="14" cy="401"></circle><circle r="0" cx="363" cy="291"></circle><circle r="0" cx="266" cy="61"></circle><circle r="6" cx="370" cy="258"></circle><circle r="10" cx="390" cy="367"></circle><circle r="4" cx="383" cy="427"></circle><circle r="5" cx="52" cy="482"></circle><circle r="2" cx="88" cy="351"></circle><circle r="8" cx="596" cy="418"></circle><circle r="2" cx="544" cy="273"></circle><circle r="0" cx="799" cy="191"></circle><circle r="7" cx="526" cy="36"></circle><circle r="1" cx="758" cy="511"></circle><circle r="8" cx="612" cy="552"></circle><circle r="4" cx="647" cy="41"></circle><circle r="4" cx="731" cy="319"></circle><circle r="5" cx="23" cy="576"></circle><circle r="10" cx="638" cy="428"></circle><circle r="12" cx="136" cy="509"></circle><circle r="12" cx="426" cy="91"></circle><circle r="10" cx="731" cy="559"></circle><circle r="1" cx="138" cy="347"></circle><circle r="5" cx="691" cy="462"></circle><circle r="8" cx="376" cy="315"></circle><circle r="1" cx="859" cy="314"></circle><circle r="0" cx="582" cy="226"></circle><circle r="7" cx="283" cy="179"></circle><circle r="5" cx="515" cy="343"></circle><circle r="4" cx="116" cy="293"></circle><circle r="10" cx="358" cy="499"></circle><circle r="7" cx="454" cy="578"></circle><circle r="8" cx="400" cy="240"></circle><circle r="6" cx="885" cy="116"></circle><circle r="11" cx="345" cy="476"></circle><circle r="12" cx="709" cy="596"></circle><circle r="3" cx="757" cy="473"></circle><circle r="5" cx="390" cy="161"></circle><circle r="2" cx="508" cy="222"></circle><circle r="4" cx="213" cy="588"></circle><circle r="1" cx="561" cy="399"></circle><circle r="12" cx="277" cy="388"></circle><circle r="11" cx="828" cy="20"></circle><circle r="10" cx="195" cy="388"></circle><circle r="1" cx="113" cy="83"></circle><circle r="1" cx="188" cy="566"></circle><circle r="4" cx="840" cy="346"></circle><circle r="1" cx="833" cy="535"></circle><circle r="9" cx="429" cy="327"></circle><circle r="12" cx="512" cy="412"></circle><circle r="12" cx="227" cy="480"></circle><circle r="5" cx="238" cy="243"></circle><circle r="4" cx="131" cy="191"></circle><circle r="6" cx="671" cy="133"></circle><circle r="5" cx="142" cy="422"></circle><circle r="0" cx="800" cy="563"></circle><circle r="10" cx="731" cy="155"></circle><circle r="4" cx="199" cy="461"></circle><circle r="8" cx="592" cy="194"></circle><circle r="0" cx="510" cy="133"></circle><circle r="2" cx="556" cy="241"></circle><circle r="5" cx="187" cy="249"></circle><circle r="0" cx="722" cy="509"></circle><circle r="3" cx="618" cy="136"></circle><circle r="6" cx="337" cy="549"></circle><circle r="9" cx="437" cy="137"></circle><circle r="12" cx="298" cy="237"></circle><circle r="12" cx="715" cy="232"></circle><circle r="9" cx="193" cy="285"></circle><circle r="7" cx="646" cy="297"></circle><circle r="10" cx="172" cy="464"></circle><circle r="2" cx="6" cy="372"></circle><circle r="3" cx="752" cy="88"></circle><circle r="4" cx="618" cy="59"></circle><circle r="2" cx="695" cy="213"></circle><circle r="8" cx="51" cy="76"></circle><circle r="9" cx="180" cy="187"></circle><circle r="11" cx="237" cy="107"></circle><circle r="0" cx="215" cy="40"></circle><circle r="11" cx="64" cy="437"></circle><circle r="5" cx="95" cy="532"></circle><circle r="3" cx="76" cy="554"></circle><circle r="6" cx="814" cy="216"></circle><circle r="10" cx="233" cy="65"></circle><circle r="1" cx="853" cy="398"></circle><circle r="7" cx="220" cy="420"></circle><circle r="9" cx="172" cy="140"></circle><circle r="1" cx="873" cy="589"></circle><circle r="3" cx="234" cy="509"></circle><circle r="1" cx="44" cy="50"></circle><circle r="5" cx="388" cy="568"></circle><circle r="2" cx="486" cy="510"></circle><circle r="8" cx="318" cy="95"></circle><circle r="4" cx="789" cy="516"></circle><circle r="0" cx="597" cy="270"></circle><circle r="7" cx="142" cy="266"></circle><circle r="8" cx="202" cy="334"></circle><circle r="10" cx="646" cy="123"></circle><circle r="4" cx="545" cy="479"></circle><circle r="11" cx="192" cy="24"></circle><circle r="12" cx="373" cy="213"></circle><circle r="12" cx="259" cy="135"></circle><circle r="12" cx="685" cy="20"></circle><circle r="1" cx="418" cy="451"></circle><circle r="8" cx="229" cy="445"></circle><circle r="12" cx="309" cy="383"></circle><circle r="3" cx="664" cy="98"></circle><circle r="8" cx="269" cy="247"></circle><circle r="6" cx="594" cy="487"></circle><circle r="2" cx="326" cy="456"></circle><circle r="2" cx="168" cy="373"></circle><circle r="0" cx="359" cy="70"></circle><circle r="1" cx="51" cy="167"></circle><circle r="4" cx="716" cy="353"></circle><circle r="4" cx="354" cy="176"></circle><circle r="1" cx="625" cy="454"></circle><circle r="2" cx="529" cy="581"></circle><circle r="3" cx="735" cy="424"></circle><circle r="11" cx="663" cy="189"></circle><circle r="9" cx="90" cy="53"></circle><circle r="12" cx="798" cy="247"></circle><circle r="2" cx="11" cy="63"></circle><circle r="12" cx="464" cy="433"></circle><circle r="8" cx="307" cy="49"></circle><circle r="0" cx="33" cy="232"></circle><circle r="9" cx="186" cy="52"></circle><circle r="4" cx="766" cy="248"></circle><circle r="1" cx="68" cy="315"></circle><circle r="3" cx="149" cy="323"></circle><circle r="0" cx="88" cy="16"></circle><circle r="8" cx="748" cy="194"></circle><circle r="0" cx="413" cy="348"></circle><circle r="9" cx="112" cy="1"></circle><circle r="12" cx="544" cy="362"></circle><circle r="9" cx="889" cy="343"></circle><circle r="10" cx="651" cy="497"></circle><circle r="11" cx="234" cy="208"></circle><circle r="1" cx="9" cy="467"></circle><circle r="0" cx="414" cy="203"></circle><circle r="5" cx="703" cy="159"></circle><circle r="7" cx="148" cy="37"></circle><circle r="2" cx="658" cy="462"></circle><circle r="12" cx="110" cy="597"></circle><circle r="5" cx="460" cy="529"></circle><circle r="5" cx="92" cy="202"></circle><circle r="9" cx="594" cy="48"></circle><circle r="8" cx="892" cy="476"></circle><circle r="11" cx="752" cy="582"></circle><circle r="2" cx="106" cy="502"></circle><circle r="3" cx="775" cy="418"></circle><circle r="12" cx="850" cy="86"></circle><circle r="8" cx="481" cy="261"></circle><circle r="0" cx="429" cy="227"></circle><circle r="8" cx="131" cy="538"></circle><circle r="2" cx="809" cy="73"></circle><circle r="10" cx="882" cy="89"></circle><circle r="12" cx="834" cy="416"></circle><circle r="8" cx="499" cy="563"></circle><circle r="9" cx="822" cy="110"></circle><circle r="10" cx="748" cy="46"></circle><circle r="3" cx="522" cy="498"></circle><circle r="11" cx="474" cy="76"></circle><circle r="11" cx="41" cy="264"></circle><circle r="5" cx="491" cy="539"></circle><circle r="2" cx="681" cy="343"></circle><circle r="0" cx="401" cy="115"></circle><circle r="10" cx="782" cy="44"></circle><circle r="5" cx="705" cy="399"></circle><circle r="4" cx="719" cy="278"></circle><circle r="1" cx="350" cy="374"></circle><circle r="0" cx="847" cy="165"></circle><circle r="5" cx="134" cy="373"></circle><circle r="3" cx="275" cy="423"></circle><circle r="5" cx="448" cy="192"></circle><circle r="3" cx="38" cy="432"></circle><circle r="5" cx="460" cy="344"></circle><circle r="0" cx="504" cy="458"></circle><circle r="6" cx="11" cy="190"></circle><circle r="1" cx="733" cy="22"></circle><circle r="9" cx="25" cy="491"></circle><circle r="2" cx="767" cy="551"></circle><circle r="8" cx="259" cy="325"></circle><circle r="2" cx="114" cy="123"></circle><circle r="0" cx="554" cy="199"></circle><circle r="5" cx="192" cy="425"></circle><circle r="9" cx="460" cy="114"></circle><circle r="11" cx="432" cy="36"></circle><circle r="9" cx="286" cy="281"></circle><circle r="4" cx="52" cy="110"></circle><circle r="4" cx="91" cy="478"></circle><circle r="5" cx="241" cy="376"></circle><circle r="0" cx="320" cy="312"></circle><circle r="12" cx="682" cy="289"></circle><circle r="10" cx="328" cy="170"></circle><circle r="2" cx="552" cy="47"></circle><circle r="3" cx="825" cy="579"></circle><circle r="7" cx="649" cy="591"></circle><circle r="9" cx="291" cy="140"></circle><circle r="3" cx="170" cy="410"></circle><circle r="7" cx="149" cy="593"></circle><circle r="4" cx="617" cy="92"></circle><circle r="9" cx="468" cy="285"></circle><circle r="2" cx="126" cy="466"></circle><circle r="2" cx="335" cy="288"></circle><circle r="9" cx="394" cy="268"></circle><circle r="7" cx="160" cy="551"></circle><circle r="12" cx="101" cy="237"></circle><circle r="1" cx="394" cy="479"></circle><circle r="3" cx="527" cy="169"></circle><circle r="8" cx="859" cy="432"></circle><circle r="10" cx="92" cy="442"></circle><circle r="0" cx="55" cy="358"></circle><circle r="12" cx="284" cy="206"></circle><circle r="1" cx="546" cy="561"></circle><circle r="9" cx="891" cy="387"></circle><circle r="6" cx="708" cy="543"></circle><circle r="6" cx="307" cy="475"></circle><circle r="4" cx="773" cy="598"></circle><circle r="6" cx="628" cy="2"></circle><circle r="11" cx="27" cy="3"></circle><circle r="9" cx="854" cy="45"></circle><circle r="0" cx="720" cy="446"></circle><circle r="2" cx="397" cy="41"></circle><circle r="0" cx="890" cy="530"></circle><circle r="4" cx="820" cy="47"></circle><circle r="7" cx="589" cy="5"></circle><circle r="9" cx="735" cy="379"></circle><circle r="10" cx="437" cy="406"></circle><circle r="10" cx="173" cy="75"></circle><circle r="4" cx="667" cy="427"></circle><circle r="1" cx="373" cy="141"></circle><circle r="8" cx="317" cy="514"></circle><circle r="7" cx="395" cy="520"></circle><circle r="9" cx="463" cy="9"></circle><circle r="0" cx="528" cy="248"></circle><circle r="7" cx="854" cy="225"></circle><circle r="1" cx="321" cy="216"></circle><circle r="12" cx="29" cy="543"></circle><circle r="1" cx="346" cy="594"></circle><circle r="7" cx="449" cy="260"></circle><circle r="6" cx="790" cy="96"></circle><circle r="3" cx="61" cy="221"></circle><circle r="10" cx="811" cy="340"></circle><circle r="12" cx="399" cy="396"></circle><circle r="6" cx="678" cy="386"></circle><circle r="7" cx="33" cy="335"></circle><circle r="2" cx="58" cy="528"></circle><circle r="5" cx="537" cy="309"></circle><circle r="11" cx="682" cy="496"></circle><circle r="0" cx="235" cy="178"></circle><circle r="9" cx="757" cy="352"></circle><circle r="7" cx="823" cy="378"></circle><circle r="7" cx="489" cy="187"></circle><circle r="11" cx="501" cy="27"></circle><circle r="10" cx="101" cy="327"></circle><circle r="4" cx="809" cy="471"></circle><circle r="0" cx="830" cy="188"></circle><circle r="0" cx="850" cy="559"></circle><circle r="2" cx="107" cy="379"></circle><circle r="2" cx="430" cy="475"></circle><circle r="1" cx="25" cy="153"></circle><circle r="1" cx="425" cy="510"></circle><circle r="2" cx="341" cy="109"></circle><circle r="3" cx="204" cy="511"></circle><circle r="3" cx="644" cy="394"></circle><circle r="6" cx="546" cy="424"></circle><circle r="11" cx="311" cy="571"></circle><circle r="5" cx="476" cy="599"></circle><circle r="0" cx="831" cy="313"></circle><circle r="9" cx="861" cy="371"></circle><circle r="0" cx="218" cy="276"></circle><circle r="0" cx="434" cy="5"></circle><circle r="2" cx="200" cy="76"></circle><circle r="2" cx="258" cy="279"></circle><circle r="0" cx="146" cy="237"></circle><circle r="5" cx="222" cy="534"></circle><circle r="0" cx="365" cy="453"></circle><circle r="7" cx="81" cy="414"></circle><circle r="3" cx="6" cy="110"></circle><circle r="10" cx="254" cy="542"></circle><circle r="1" cx="769" cy="283"></circle><circle r="0" cx="381" cy="11"></circle><circle r="4" cx="448" cy="495"></circle><circle r="10" cx="709" cy="75"></circle><circle r="11" cx="709" cy="101"></circle><circle r="7" cx="47" cy="592"></circle><circle r="2" cx="412" cy="424"></circle><circle r="5" cx="16" cy="252"></circle><circle r="7" cx="712" cy="132"></circle><circle r="9" cx="669" cy="67"></circle><circle r="8" cx="675" cy="160"></circle><circle r="4" cx="849" cy="2"></circle><circle r="3" cx="148" cy="450"></circle><circle r="5" cx="785" cy="14"></circle><circle r="2" cx="628" cy="205"></circle><circle r="5" cx="799" cy="405"></circle><circle r="3" cx="557" cy="450"></circle><circle r="10" cx="494" cy="159"></circle><circle r="10" cx="575" cy="288"></circle><circle r="4" cx="773" cy="316"></circle><circle r="1" cx="745" cy="270"></circle><circle r="1" cx="372" cy="403"></circle><circle r="0" cx="886" cy="40"></circle><circle r="0" cx="509" cy="84"></circle><circle r="10" cx="7" cy="280"></circle><circle r="2" cx="286" cy="79"></circle><circle r="12" cx="515" cy="283"></circle><circle r="12" cx="564" cy="14"></circle><circle r="8" cx="51" cy="18"></circle><circle r="2" cx="489" cy="325"></circle><circle r="2" cx="834" cy="244"></circle><circle r="5" cx="681" cy="584"></circle><circle r="9" cx="390" cy="68"></circle><circle r="3" cx="439" cy="375"></circle><circle r="10" cx="776" cy="73"></circle><circle r="4" cx="481" cy="50"></circle><circle r="7" cx="450" cy="60"></circle><circle r="1" cx="457" cy="312"></circle><circle r="2" cx="4" cy="326"></circle><circle r="3" cx="288" cy="554"></circle><circle r="2" cx="232" cy="138"></circle><circle r="11" cx="284" cy="339"></circle><circle r="9" cx="600" cy="591"></circle><circle r="2" cx="297" cy="4"></circle><circle r="12" cx="613" cy="509"></circle><circle r="12" cx="463" cy="160"></circle><circle r="1" cx="336" cy="404"></circle><circle r="1" cx="174" cy="512"></circle><circle r="5" cx="424" cy="598"></circle><circle r="11" cx="149" cy="156"></circle><circle r="4" cx="303" cy="422"></circle><circle r="5" cx="3" cy="426"></circle><circle r="11" cx="659" cy="321"></circle><circle r="8" cx="546" cy="102"></circle><circle r="9" cx="589" cy="536"></circle><circle r="5" cx="891" cy="3"></circle><circle r="1" cx="112" cy="557"></circle><circle r="3" cx="867" cy="501"></circle><circle r="7" cx="68" cy="135"></circle><circle r="11" cx="822" cy="138"></circle><circle r="6" cx="584" cy="455"></circle><circle r="5" cx="883" cy="414"></circle><circle r="9" cx="340" cy="140"></circle><circle r="4" cx="318" cy="358"></circle><circle r="11" cx="180" cy="318"></circle><circle r="6" cx="573" cy="72"></circle><circle r="1" cx="697" cy="430"></circle><circle r="8" cx="769" cy="170"></circle><circle r="7" cx="209" cy="193"></circle><circle r="2" cx="107" cy="408"></circle><circle r="10" cx="482" cy="414"></circle><circle r="10" cx="139" cy="73"></circle><circle r="10" cx="393" cy="599"></circle><circle r="7" cx="11" cy="24"></circle><circle r="11" cx="552" cy="128"></circle><circle r="10" cx="79" cy="582"></circle><circle r="0" cx="228" cy="327"></circle><circle r="5" cx="573" cy="367"></circle><circle r="5" cx="176" cy="2"></circle><circle r="10" cx="659" cy="272"></circle></g></svg>