<svg id="visual" viewBox="0 0 900 600" width="900" height="600" xmlns="http://www.w3.org/2000/svg" xmlns:xlink="http://www.w3.org/1999/xlink" version="1.1"><rect x="0" y="0" width="900" height="600" fill="#ddd6ce"></rect><g fill="#c29a5c"><circle r="35" cx="41" cy="289"></circle><circle r="3" cx="427" cy="414"></circle><circle r="20" cx="368" cy="274"></circle><circle r="10" cx="466" cy="112"></circle><circle r="26" cx="155" cy="466"></circle><circle r="7" cx="76" cy="496"></circle><circle r="24" cx="419" cy="178"></circle><circle r="18" cx="41" cy="376"></circle><circle r="20" cx="500" cy="308"></circle><circle r="18" cx="701" cy="344"></circle><circle r="18" cx="292" cy="68"></circle><circle r="14" cx="364" cy="36"></circle><circle r="3" cx="161" cy="302"></circle><circle r="14" cx="775" cy="282"></circle><circle r="5" cx="732" cy="457"></circle><circle r="8" cx="211" cy="13"></circle><circle r="11" cx="473" cy="18"></circle><circle r="5" cx="327" cy="493"></circle><circle r="15" cx="622" cy="511"></circle><circle r="14" cx="595" cy="444"></circle><circle r="31" cx="172" cy="225"></circle><circle r="11" cx="673" cy="43"></circle><circle r="7" cx="96" cy="15"></circle><circle r="32" cx="259" cy="302"></circle><circle r="21" cx="276" cy="434"></circle><circle r="27" cx="385" cy="588"></circle><circle r="3" cx="867" cy="188"></circle><circle r="4" cx="18" cy="203"></circle><circle r="2" cx="245" cy="188"></circle><circle r="19" cx="216" cy="533"></circle><circle r="23" cx="655" cy="195"></circle><circle r="14" cx="856" cy="265"></circle><circle r="22" cx="866" cy="533"></circle><circle r="28" cx="463" cy="558"></circle><circle r="27" cx="7" cy="77"></circle><circle r="9" cx="749" cy="538"></circle><circle r="21" cx="722" cy="144"></circle><circle r="21" cx="522" cy="407"></circle><circle r="23" cx="772" cy="88"></circle><circle r="13" cx="528" cy="517"></circle><circle r="15" cx="898" cy="364"></circle><circle r="3" cx="793" cy="181"></circle><circle r="3" cx="125" cy="110"></circle><circle r="17" cx="572" cy="259"></circle><circle r="5" cx="196" cy="126"></circle><circle r="17" cx="828" cy="26"></circle><circle r="21" cx="598" cy="18"></circle><circle r="8" cx="355" cy="395"></circle></g></svg>