<svg id="visual" viewBox="0 0 900 600" width="900" height="600" xmlns="http://www.w3.org/2000/svg" xmlns:xlink="http://www.w3.org/1999/xlink" version="1.1"><rect x="0" y="0" width="900" height="600" fill="#ffffff"></rect><g fill="#B3E9F6"><circle r="72" cx="97" cy="466"></circle><circle r="5" cx="567" cy="528"></circle><circle r="44" cx="591" cy="361"></circle><circle r="20" cx="341" cy="150"></circle><circle r="24" cx="760" cy="348"></circle><circle r="37" cx="366" cy="550"></circle><circle r="45" cx="73" cy="82"></circle><circle r="42" cx="202" cy="275"></circle><circle r="7" cx="296" cy="418"></circle><circle r="17" cx="508" cy="102"></circle><circle r="11" cx="699" cy="48"></circle><circle r="27" cx="339" cy="7"></circle><circle r="60" cx="851" cy="595"></circle><circle r="48" cx="404" cy="319"></circle><circle r="5" cx="744" cy="495"></circle><circle r="15" cx="845" cy="152"></circle><circle r="27" cx="891" cy="414"></circle><circle r="36" cx="18" cy="331"></circle><circle r="49" cx="12" cy="581"></circle><circle r="16" cx="223" cy="561"></circle><circle r="52" cx="659" cy="187"></circle><circle r="27" cx="890" cy="13"></circle></g></svg>