<svg id="visual" viewBox="0 0 900 600" width="900" height="600" xmlns="http://www.w3.org/2000/svg" xmlns:xlink="http://www.w3.org/1999/xlink" version="1.1"><rect x="0" y="0" width="900" height="600" fill="#ffffff"></rect><g fill="#B3E9F6"><circle r="38" cx="815" cy="72"></circle><circle r="3" cx="193" cy="400"></circle><circle r="5" cx="281" cy="457"></circle><circle r="9" cx="690" cy="451"></circle><circle r="25" cx="768" cy="281"></circle><circle r="29" cx="67" cy="381"></circle><circle r="18" cx="259" cy="592"></circle><circle r="3" cx="220" cy="313"></circle><circle r="18" cx="692" cy="351"></circle><circle r="24" cx="598" cy="440"></circle><circle r="18" cx="53" cy="14"></circle><circle r="33" cx="698" cy="227"></circle><circle r="20" cx="539" cy="585"></circle><circle r="33" cx="460" cy="560"></circle><circle r="2" cx="622" cy="571"></circle><circle r="15" cx="34" cy="464"></circle><circle r="6" cx="403" cy="157"></circle><circle r="22" cx="517" cy="72"></circle><circle r="36" cx="494" cy="440"></circle><circle r="7" cx="130" cy="193"></circle><circle r="33" cx="603" cy="193"></circle><circle r="12" cx="873" cy="346"></circle><circle r="36" cx="214" cy="502"></circle><circle r="31" cx="58" cy="105"></circle><circle r="4" cx="854" cy="465"></circle><circle r="6" cx="671" cy="79"></circle><circle r="8" cx="595" cy="98"></circle><circle r="6" cx="139" cy="452"></circle><circle r="8" cx="760" cy="509"></circle><circle r="33" cx="306" cy="170"></circle><circle r="10" cx="325" cy="324"></circle><circle r="24" cx="153" cy="116"></circle><circle r="26" cx="300" cy="249"></circle><circle r="14" cx="110" cy="523"></circle><circle r="15" cx="507" cy="294"></circle><circle r="34" cx="616" cy="361"></circle><circle r="35" cx="837" cy="164"></circle><circle r="9" cx="373" cy="15"></circle><circle r="15" cx="775" cy="586"></circle><circle r="4" cx="397" cy="442"></circle><circle r="29" cx="411" cy="353"></circle><circle r="19" cx="851" cy="249"></circle><circle r="33" cx="723" cy="137"></circle><circle r="33" cx="380" cy="578"></circle><circle r="13" cx="726" cy="12"></circle><circle r="30" cx="2" cy="340"></circle><circle r="17" cx="519" cy="512"></circle><circle r="12" cx="619" cy="15"></circle><circle r="8" cx="125" cy="332"></circle><circle r="10" cx="163" cy="10"></circle><circle r="25" cx="620" cy="268"></circle><circle r="24" cx="774" cy="405"></circle></g></svg>