<svg id="visual" viewBox="0 0 900 600" width="900" height="600" xmlns="http://www.w3.org/2000/svg" xmlns:xlink="http://www.w3.org/1999/xlink" version="1.1"><rect x="0" y="0" width="900" height="600" fill="#001220"></rect><path d="M0 171L21.5 166.5C43 162 86 153 128.8 155.5C171.7 158 214.3 172 257.2 179.2C300 186.3 343 186.7 385.8 182.8C428.7 179 471.3 171 514.2 163.7C557 156.3 600 149.7 642.8 153.7C685.7 157.7 728.3 172.3 771.2 177.7C814 183 857 179 878.5 177L900 175L900 0L878.5 0C857 0 814 0 771.2 0C728.3 0 685.7 0 642.8 0C600 0 557 0 514.2 0C471.3 0 428.7 0 385.8 0C343 0 300 0 257.2 0C214.3 0 171.7 0 128.8 0C86 0 43 0 21.5 0L0 0Z" fill="#fa7268"></path><path d="M0 113L21.5 120.2C43 127.3 86 141.7 128.8 145.3C171.7 149 214.3 142 257.2 140.2C300 138.3 343 141.7 385.8 143.3C428.7 145 471.3 145 514.2 140.2C557 135.3 600 125.7 642.8 126C685.7 126.3 728.3 136.7 771.2 137.2C814 137.7 857 128.3 878.5 123.7L900 119L900 0L878.5 0C857 0 814 0 771.2 0C728.3 0 685.7 0 642.8 0C600 0 557 0 514.2 0C471.3 0 428.7 0 385.8 0C343 0 300 0 257.2 0C214.3 0 171.7 0 128.8 0C86 0 43 0 21.5 0L0 0Z" fill="#f16367"></path><path d="M0 87L21.5 90.3C43 93.7 86 100.3 128.8 102C171.7 103.7 214.3 100.3 257.2 98.7C300 97 343 97 385.8 98.3C428.7 99.7 471.3 102.3 514.2 101.3C557 100.3 600 95.7 642.8 98.5C685.7 101.3 728.3 111.7 771.2 113.8C814 116 857 110 878.5 107L900 104L900 0L878.5 0C857 0 814 0 771.2 0C728.3 0 685.7 0 642.8 0C600 0 557 0 514.2 0C471.3 0 428.7 0 385.8 0C343 0 300 0 257.2 0C214.3 0 171.7 0 128.8 0C86 0 43 0 21.5 0L0 0Z" fill="#e85467"></path><path d="M0 92L21.5 94.3C43 96.7 86 101.3 128.8 97.3C171.7 93.3 214.3 80.7 257.2 73.7C300 66.7 343 65.3 385.8 66C428.7 66.7 471.3 69.3 514.2 74.3C557 79.3 600 86.7 642.8 91.8C685.7 97 728.3 100 771.2 97.8C814 95.7 857 88.3 878.5 84.7L900 81L900 0L878.5 0C857 0 814 0 771.2 0C728.3 0 685.7 0 642.8 0C600 0 557 0 514.2 0C471.3 0 428.7 0 385.8 0C343 0 300 0 257.2 0C214.3 0 171.7 0 128.8 0C86 0 43 0 21.5 0L0 0Z" fill="#de4467"></path><path d="M0 43L21.5 46.8C43 50.7 86 58.3 128.8 59.2C171.7 60 214.3 54 257.2 50.3C300 46.7 343 45.3 385.8 46.5C428.7 47.7 471.3 51.3 514.2 56.8C557 62.3 600 69.7 642.8 66.8C685.7 64 728.3 51 771.2 45C814 39 857 40 878.5 40.5L900 41L900 0L878.5 0C857 0 814 0 771.2 0C728.3 0 685.7 0 642.8 0C600 0 557 0 514.2 0C471.3 0 428.7 0 385.8 0C343 0 300 0 257.2 0C214.3 0 171.7 0 128.8 0C86 0 43 0 21.5 0L0 0Z" fill="#d23467"></path><path d="M0 42L21.5 42C43 42 86 42 128.8 39.3C171.7 36.7 214.3 31.3 257.2 30.7C300 30 343 34 385.8 37C428.7 40 471.3 42 514.2 43.5C557 45 600 46 642.8 46.3C685.7 46.7 728.3 46.3 771.2 46.7C814 47 857 48 878.5 48.5L900 49L900 0L878.5 0C857 0 814 0 771.2 0C728.3 0 685.7 0 642.8 0C600 0 557 0 514.2 0C471.3 0 428.7 0 385.8 0C343 0 300 0 257.2 0C214.3 0 171.7 0 128.8 0C86 0 43 0 21.5 0L0 0Z" fill="#c62368"></path></svg>